<?xml version="1.0" standalone="no"?>
<!DOCTYPE svg PUBLIC "-//W3C//DTD SVG 20010904//EN"
 "http://www.w3.org/TR/2001/REC-SVG-20010904/DTD/svg10.dtd">
<svg version="1.0" xmlns="http://www.w3.org/2000/svg"
 width="300.000000pt" height="300.000000pt" viewBox="0 0 300.000000 300.000000"
 preserveAspectRatio="xMidYMid meet">
<metadata>
Created by potrace 1.10, written by Peter Selinger 2001-2011
</metadata>
<g transform="translate(0.000000,300.000000) scale(0.100000,-0.100000)"
fill="#000000" stroke="none">
<path d="M1450 2905 c0 -54 2 -96 5 -94 7 8 8 179 1 186 -3 4 -6 -38 -6 -92z"/>
<path d="M1696 2960 c-21 -23 -37 -43 -34 -45 2 -2 22 16 45 40 23 25 38 45
34 45 -4 0 -24 -18 -45 -40z"/>
<path d="M1140 2988 c0 -9 201 -211 205 -206 3 2 -43 51 -100 108 -58 58 -105
102 -105 98z"/>
<path d="M451 2947 c-13 -21 -12 -21 5 -5 10 10 16 20 13 22 -3 3 -11 -5 -18
-17z"/>
<path d="M1583 2842 c-32 -32 -66 -61 -76 -65 -9 -3 -17 -13 -17 -21 0 -7 -8
-16 -18 -18 -10 -3 -19 -13 -19 -22 0 -11 38 20 99 81 54 54 98 99 98 100 0 9
-15 -3 -67 -55z"/>
<path d="M820 2855 c0 -8 4 -15 10 -15 5 0 7 7 4 15 -4 8 -8 15 -10 15 -2 0
-4 -7 -4 -15z"/>
<path d="M2102 2820 c0 -14 2 -19 5 -12 2 6 2 18 0 25 -3 6 -5 1 -5 -13z"/>
<path d="M821 2794 c0 -11 3 -14 6 -6 3 7 2 16 -1 19 -3 4 -6 -2 -5 -13z"/>
<path d="M1452 2780 c0 -14 2 -19 5 -12 2 6 2 18 0 25 -3 6 -5 1 -5 -13z"/>
<path d="M289 2773 c-13 -16 -12 -17 4 -4 9 7 17 15 17 17 0 8 -8 3 -21 -13z"/>
<path d="M1355 2760 c3 -5 8 -10 11 -10 2 0 4 5 4 10 0 6 -5 10 -11 10 -5 0
-7 -4 -4 -10z"/>
<path d="M2097 2758 c-2 -7 -1 -22 4 -33 6 -16 8 -14 8 13 1 33 -4 41 -12 20z"/>
<path d="M1380 2740 c0 -5 10 -15 23 -21 22 -12 22 -12 3 10 -21 23 -26 26
-26 11z"/>
<path d="M821 2724 c0 -11 3 -14 6 -6 3 7 2 16 -1 19 -3 4 -6 -2 -5 -13z"/>
<path d="M229 2713 c-13 -16 -12 -17 4 -4 9 7 17 15 17 17 0 8 -8 3 -21 -13z"/>
<path d="M1268 2526 c-92 -94 -214 -219 -271 -278 -58 -59 -108 -104 -112
-100 -5 4 -5 2 -2 -4 4 -7 -4 -19 -18 -28 l-25 -16 -1 42 c-1 38 -3 35 -11
-22 -5 -35 -10 -66 -12 -67 -1 -2 -14 -4 -29 -5 -17 -2 -25 -8 -24 -18 1 -9
-45 -66 -102 -128 -91 -97 -109 -112 -145 -117 -55 -10 -82 -25 -41 -24 17 0
39 -1 50 -4 11 -2 14 -2 7 0 -6 3 -12 8 -12 13 0 10 43 0 50 -11 3 -5 21 -4
40 1 45 12 410 17 520 6 77 -7 91 -5 169 21 58 19 86 24 88 16 3 -7 17 -9 40
-6 33 6 36 4 28 -13 -12 -26 -9 -84 5 -98 7 -7 9 -1 4 22 -4 17 -1 52 5 76 8
31 8 53 0 74 -12 35 -35 49 -35 21 0 -11 3 -19 6 -19 4 0 6 -10 5 -22 -2 -21
-6 -23 -52 -20 -33 2 -69 -4 -108 -19 -52 -19 -69 -21 -159 -14 -56 4 -123 8
-151 8 -102 2 -371 -10 -387 -18 -12 -5 -18 -3 -18 7 0 17 253 271 263 263 4
-3 5 -2 2 2 -6 8 71 90 377 399 125 127 228 236 228 242 0 7 -1 11 -2 11 -2
-1 -78 -78 -170 -173z"/>
<path d="M2488 2689 c-24 -13 -37 -40 -43 -86 -7 -51 -34 -123 -46 -123 -5 0
-2 -15 8 -32 9 -18 16 -38 15 -45 -2 -9 5 -8 25 2 15 8 31 11 35 7 4 -4 11
-53 14 -108 l7 -101 31 5 c62 10 119 7 124 -6 3 -11 0 -12 -15 -4 -12 7 -25 7
-34 1 -11 -6 -8 -9 11 -9 28 0 70 -25 70 -41 0 -5 -6 -9 -12 -8 -7 1 -22 1
-33 0 -19 -2 -19 -3 4 -21 13 -11 29 -20 36 -20 7 0 19 -8 26 -17 10 -11 10
-14 2 -9 -8 4 -13 1 -13 -8 0 -9 6 -15 13 -14 24 5 20 -68 -7 -117 -43 -76
-58 -95 -69 -88 -6 4 -8 0 -5 -9 4 -10 -29 -52 -95 -122 -124 -129 -130 -136
-121 -136 4 0 -21 -29 -55 -65 -49 -50 -61 -69 -56 -85 9 -30 -6 -230 -16
-205 -6 15 -8 10 -8 -20 0 -31 2 -36 9 -20 7 16 9 11 9 -20 1 -23 -5 -47 -11
-54 -11 -11 -10 -12 1 -6 10 6 11 2 5 -16 -4 -13 -7 -32 -6 -42 0 -9 -4 -15
-9 -11 -6 3 -10 0 -8 -7 4 -30 -1 -70 -9 -65 -4 2 -6 -10 -4 -29 2 -18 -2 -66
-9 -106 -14 -86 -15 -112 -4 -158 6 -23 5 -32 -2 -28 -7 5 -8 -4 -3 -28 4 -19
4 -37 -1 -40 -4 -3 -6 -12 -3 -20 3 -7 -1 -29 -9 -47 -17 -37 -49 -135 -52
-158 -8 -59 -19 -100 -27 -100 -5 0 -21 6 -37 14 -27 14 -27 16 -19 68 4 29
10 80 12 113 3 33 8 107 13 165 4 58 6 112 5 120 -1 8 -4 62 -7 120 -10 203
-23 355 -37 410 -12 50 -35 83 -51 73 -6 -4 -8 0 -4 9 4 12 1 14 -15 10 -20
-5 -20 -4 -3 22 19 29 21 78 7 142 -5 23 -7 58 -3 79 5 30 13 41 47 60 56 31
114 47 114 32 0 -7 4 -6 10 3 8 13 10 12 10 -4 0 -20 0 -20 15 0 11 14 14 15
15 4 0 -10 3 -11 8 -4 4 6 25 21 47 32 22 11 49 29 60 39 58 54 166 143 193
159 28 16 56 61 57 89 0 6 -10 25 -23 44 -23 36 -17 65 10 44 7 -6 27 -15 43
-21 17 -5 37 -13 46 -17 10 -4 19 0 23 10 3 9 2 14 -3 10 -14 -8 -42 6 -34 18
3 5 1 7 -5 3 -14 -8 -57 9 -81 33 -19 19 -23 19 -59 7 -57 -20 -142 -65 -142
-75 0 -5 -8 -11 -17 -15 -10 -3 -25 -10 -33 -15 -58 -36 -333 -161 -367 -167
-64 -10 -55 12 17 43 55 24 77 43 49 43 -26 0 -115 -51 -124 -71 -15 -34 -38
-38 -25 -4 5 14 10 37 10 50 0 13 6 26 13 28 9 4 9 6 -1 6 -8 1 -16 -8 -19
-19 -3 -11 -10 -20 -15 -20 -5 0 -7 -4 -3 -9 3 -5 1 -12 -5 -16 -5 -3 -10 -15
-10 -26 0 -10 -3 -19 -8 -19 -4 0 -16 -16 -26 -35 -15 -27 -17 -38 -8 -47 9
-9 15 -9 24 0 15 15 28 16 28 2 0 -6 -12 -15 -27 -21 -33 -13 -15 -24 23 -15
23 6 25 11 20 39 -3 18 -2 37 2 44 4 6 37 16 72 22 42 7 94 25 145 52 44 23
123 60 175 83 52 23 132 65 177 93 l81 51 31 -63 c17 -35 28 -70 25 -79 -3 -9
-29 -32 -58 -53 -28 -20 -78 -60 -111 -88 -119 -102 -157 -125 -212 -125 -60
0 -127 -22 -168 -55 -27 -22 -30 -31 -29 -77 0 -29 4 -76 8 -105 5 -28 6 -62
2 -76 -11 -45 -31 -44 -165 13 -88 36 -106 49 -92 63 7 7 16 5 29 -6 23 -21
38 -10 17 13 -14 15 -9 21 50 69 36 29 65 58 66 64 0 7 4 3 8 -8 5 -11 4 -28
-1 -37 -6 -12 -4 -27 6 -45 14 -26 15 -26 16 -6 0 12 -6 24 -12 26 -10 4 -10
8 1 15 11 8 11 16 3 41 -10 27 -8 33 8 43 18 12 18 13 0 48 -21 41 -47 66 -57
56 -4 -4 -3 -10 3 -14 5 -4 20 -21 32 -39 l23 -32 -37 -40 c-20 -23 -41 -38
-47 -34 -6 3 -7 1 -3 -5 4 -6 -16 -27 -46 -50 -96 -70 -103 -73 -131 -63 -26
10 -26 11 -11 47 9 20 13 46 10 58 -5 21 -5 21 10 1 8 -11 12 -25 10 -32 -3
-8 1 -10 12 -6 13 5 12 0 -6 -19 -21 -24 -21 -38 2 -38 6 0 5 4 -2 9 -16 10
19 35 76 56 21 7 36 18 35 24 -2 6 4 8 14 4 11 -4 14 -3 9 5 -4 7 -3 12 3 12
14 0 81 60 81 72 0 5 -5 6 -10 3 -6 -4 -27 -8 -48 -10 -34 -4 -40 0 -57 28
-10 17 -20 26 -23 19 -2 -7 -8 -10 -12 -7 -11 7 -1 37 14 47 7 5 7 8 -1 8 -7
0 -13 11 -13 24 0 14 -11 38 -25 54 -24 29 -25 31 -10 73 29 82 76 109 187
109 59 0 185 40 199 62 4 7 65 70 136 142 70 71 110 116 88 99 -22 -17 -70
-62 -106 -99 -94 -98 -144 -145 -160 -148 -8 -2 -30 -10 -50 -19 -20 -9 -67
-19 -105 -22 -100 -8 -131 -15 -150 -36 -16 -17 -17 -16 -41 32 -14 28 -34 56
-45 62 -11 7 -42 45 -70 85 -58 85 -95 108 -162 96 -51 -8 -84 -25 -114 -57
-24 -25 -47 -97 -32 -97 12 0 0 -38 -16 -51 -15 -12 -19 -49 -6 -49 9 0 32
-59 32 -82 0 -23 19 -27 78 -17 84 13 92 17 92 50 0 53 26 32 49 -39 24 -78
26 -98 9 -105 -8 -3 -9 -6 -2 -6 8 -1 9 -14 2 -43 -16 -78 -26 -232 -16 -251
7 -14 5 -24 -6 -36 -9 -10 -16 -22 -16 -28 0 -6 -6 -14 -12 -16 -10 -4 -10 -6
-1 -6 7 -1 20 13 28 29 18 34 40 31 31 -4 -3 -13 1 -31 9 -42 12 -16 14 -17
15 -3 0 11 12 19 36 23 l35 7 -25 20 c-14 11 -26 30 -26 42 0 19 3 18 28 -10
15 -17 38 -34 52 -37 14 -4 45 -18 70 -31 25 -13 97 -42 160 -64 134 -48 161
-60 158 -75 -1 -6 3 -42 10 -81 6 -38 14 -126 17 -195 4 -69 11 -165 16 -215
7 -62 7 -123 -1 -195 -33 -317 -39 -347 -64 -337 -8 3 -13 -1 -12 -11 0 -9 -5
-16 -11 -14 -7 1 -13 -2 -13 -8 0 -5 -7 -10 -15 -10 -8 0 -15 -4 -15 -8 0 -12
-75 -36 -87 -29 -10 6 -63 -38 -63 -53 0 -14 18 -21 25 -10 3 5 0 10 -7 10
-23 0 14 19 72 37 30 8 72 27 93 40 l39 24 -7 -23 c-9 -27 -3 -23 15 11 8 15
8 21 1 17 -6 -4 -11 -3 -11 3 0 18 17 21 49 10 29 -10 39 -37 13 -32 -6 2 -9
-3 -6 -10 15 -40 -113 -98 -226 -102 -91 -4 -94 -5 -52 -15 19 -4 64 -4 100 2
37 5 105 11 152 13 110 6 146 16 142 41 -2 14 0 15 6 6 7 -11 23 -9 82 6 43
11 66 21 57 25 -9 3 -30 2 -48 -3 -17 -5 -35 -7 -39 -5 -5 3 -22 2 -39 -1 -23
-5 -31 -12 -32 -28 -1 -19 -2 -18 -9 4 -5 17 -8 19 -9 8 -1 -17 -63 -52 -69
-38 -1 3 -20 5 -42 4 -22 -1 -37 2 -34 7 3 5 16 9 29 9 13 0 29 8 34 17 6 10
11 13 11 6 0 -6 13 1 30 17 24 23 33 44 50 130 12 56 33 132 47 168 21 56 25
83 24 167 0 102 6 159 40 371 13 82 19 172 19 274 l0 151 88 96 c48 53 117
128 153 167 108 117 199 251 199 293 0 25 -41 135 -56 150 -7 8 -14 23 -14 33
0 11 -6 23 -14 27 -21 12 -66 130 -76 201 -5 35 -13 69 -17 75 -5 7 -10 30
-12 52 -1 22 -11 57 -21 77 -11 21 -15 40 -10 43 5 3 16 -9 24 -27 12 -28 14
-29 13 -9 -1 22 -49 81 -65 81 -4 0 -15 -5 -24 -11z m39 -61 c2 -23 8 -45 14
-49 6 -3 10 -9 10 -13 -4 -31 1 -66 9 -61 6 3 10 4 10 1 0 -3 -15 -12 -33 -20
-19 -7 -42 -24 -53 -37 -22 -28 -43 -31 -57 -7 -8 13 -6 29 10 65 12 26 24 70
26 96 5 50 34 93 52 76 5 -5 11 -28 12 -51z m38 -167 c-3 -5 -1 -12 5 -16 7
-4 7 -12 0 -26 -7 -13 -7 -19 0 -19 5 0 10 -9 10 -21 0 -11 4 -28 9 -37 13
-24 24 -103 14 -101 -4 1 -21 -1 -36 -6 -16 -4 -32 -4 -37 1 -4 5 -10 41 -13
79 -4 39 -9 82 -12 97 -4 20 0 31 17 42 25 17 53 22 43 7z m-1060 -225 c29 -9
45 -19 45 -30 0 -7 16 -28 36 -47 23 -22 33 -40 30 -52 -3 -13 0 -17 9 -13 7
2 21 -1 31 -8 15 -11 13 -12 -17 -8 -19 2 -31 1 -27 -3 4 -4 18 -9 30 -10 13
-1 25 -3 28 -4 3 0 13 -14 22 -29 20 -33 17 -97 -6 -142 -8 -17 -11 -28 -6
-25 5 3 11 1 15 -5 3 -5 -1 -10 -9 -10 -10 0 -16 -9 -16 -24 0 -28 -15 -43
-24 -24 -3 7 -3 -5 1 -27 5 -36 4 -39 -10 -27 -14 12 -14 10 -5 -22 8 -26 8
-42 0 -59 -12 -26 -10 -70 7 -111 9 -22 9 -32 -1 -43 -10 -13 -14 -13 -25 3
-7 10 -13 24 -13 32 0 12 4 11 20 -3 20 -18 20 -18 4 15 l-17 33 -14 -27 c-14
-26 -33 -35 -33 -15 0 5 6 7 13 3 6 -4 4 1 -5 11 -10 11 -20 16 -23 13 -9 -8
6 -59 15 -53 4 2 8 -7 8 -22 0 -25 -1 -26 -14 -8 -8 10 -14 28 -14 39 0 17 -2
18 -10 6 -15 -23 -13 6 2 33 7 12 13 31 13 42 1 11 5 30 9 43 5 14 3 22 -5 22
-9 0 -8 4 1 15 7 8 17 12 22 9 6 -4 7 0 1 12 -10 22 -7 95 4 103 11 8 12 132
2 125 -5 -3 -10 -22 -10 -42 l-2 -37 -6 40 c-4 22 -11 46 -15 54 -7 11 -5 13
7 8 22 -8 21 -5 -5 24 -14 17 -19 19 -15 7 4 -10 2 -18 -5 -18 -7 0 -9 14 -5
38 2 21 0 47 -6 58 -13 22 -34 45 -42 44 -21 -3 -75 15 -75 25 0 7 -7 18 -15
25 -8 7 -13 16 -10 20 3 5 -1 11 -7 13 -7 3 -1 6 15 6 15 1 26 6 25 13 -5 21
47 29 97 14z m-125 -100 c6 -19 18 -40 26 -46 7 -7 14 -18 14 -24 0 -6 -5 -4
-10 4 -5 8 -10 11 -10 7 0 -4 7 -18 16 -32 12 -18 13 -28 5 -44 -16 -30 -12
-40 4 -11 8 14 15 21 15 15 1 -5 3 -20 5 -31 4 -17 -4 -25 -38 -38 -61 -23
-90 -22 -82 4 4 13 2 20 -7 21 -7 0 -4 4 7 9 17 7 17 9 3 9 -11 1 -18 9 -18
21 0 12 -7 20 -16 20 -13 0 -12 4 5 26 11 15 18 31 15 36 -3 5 2 16 12 24 17
14 17 15 2 10 -11 -3 -18 0 -18 8 0 29 13 46 35 46 18 0 26 -8 35 -34z m113
-46 c4 -4 -9 -4 -29 -1 -21 3 -39 12 -41 18 -4 10 3 10 29 1 18 -6 37 -14 41
-18z m-27 -35 c-4 -14 -2 -25 4 -25 5 0 10 9 10 21 0 11 5 19 12 17 20 -7 20
-24 -2 -49 -20 -24 -20 -24 -32 -4 -17 28 -16 65 0 65 10 0 12 -7 8 -25z m254
-256 c0 -11 3 -18 8 -16 4 1 8 -1 10 -5 5 -18 -14 -9 -23 11 -5 11 -13 21 -17
21 -5 0 -8 7 -8 16 0 14 3 14 15 4 8 -7 15 -21 15 -31z m98 6 c-6 -14 -15 -25
-20 -25 -9 0 -4 14 15 38 15 19 18 14 5 -13z m-113 -82 c5 -43 14 -63 35 -85
16 -15 37 -28 47 -28 14 -1 12 -6 -12 -25 -41 -34 -71 -32 -94 5 -10 16 -21
27 -24 23 -4 -4 -5 9 -2 28 16 98 28 148 35 144 4 -3 11 -30 15 -62z m36 10
c13 -16 12 -17 -3 -4 -17 13 -22 21 -14 21 2 0 10 -8 17 -17z m3 -39 c3 -9 6
-23 6 -32 0 -21 -15 -5 -25 26 -7 25 9 31 19 6z m39 -41 c-4 -11 -3 -14 5 -9
8 5 10 2 6 -9 -6 -15 -8 -15 -22 -2 -15 16 -9 53 7 42 6 -3 7 -13 4 -22z m63
-29 c-15 -14 -31 -22 -35 -19 -7 7 39 45 54 44 6 0 -3 -11 -19 -25z m-246
-169 c10 -12 10 -15 -4 -15 -9 0 -16 7 -16 15 0 8 2 15 4 15 2 0 9 -7 16 -15z
m557 -1232 c2 -6 -3 -13 -12 -16 -10 -5 -15 0 -15 14 0 21 21 22 27 2z"/>
<path d="M2499 2668 c0 -2 -2 -32 -4 -68 -2 -47 -1 -59 6 -41 13 32 17 101 7
107 -4 3 -8 4 -9 2z"/>
<path d="M2513 2524 c-6 -13 -7 -24 -3 -24 9 0 25 39 18 45 -2 2 -8 -7 -15
-21z"/>
<path d="M2474 2505 c-9 -14 -14 -28 -11 -31 3 -3 12 9 20 25 19 38 14 40 -9
6z"/>
<path d="M1430 2210 c-24 -19 -17 -26 14 -14 9 3 13 11 9 17 -4 6 0 8 10 4 10
-3 17 -2 17 3 0 16 -23 11 -50 -10z"/>
<path d="M1397 2179 c7 -7 15 -10 18 -7 3 3 -2 9 -12 12 -14 6 -15 5 -6 -5z"/>
<path d="M1484 2178 c-3 -5 -3 -12 0 -15 3 -4 6 -2 6 4 0 6 9 9 20 6 11 -3 20
-3 20 0 0 10 -40 15 -46 5z"/>
<path d="M1450 2164 c0 -8 5 -12 10 -9 6 4 8 11 5 16 -9 14 -15 11 -15 -7z"/>
<path d="M1485 2140 c-28 -7 -28 -8 -5 -9 14 0 32 4 40 9 17 11 8 11 -35 0z"/>
<path d="M1570 2140 c0 -5 5 -10 11 -10 5 0 7 5 4 10 -3 6 -8 10 -11 10 -2 0
-4 -4 -4 -10z"/>
<path d="M1666 1983 c-6 -14 -5 -15 5 -6 7 7 10 15 7 18 -3 3 -9 -2 -12 -12z"/>
<path d="M1677 1945 c3 -8 9 -12 14 -9 12 7 11 11 -5 17 -10 4 -13 1 -9 -8z"/>
<path d="M1648 1902 c-3 -11 0 -19 7 -19 7 0 10 8 7 19 -2 10 -6 18 -7 18 -1
0 -5 -8 -7 -18z"/>
<path d="M1570 1675 c0 -8 4 -15 10 -15 5 0 7 7 4 15 -4 8 -8 15 -10 15 -2 0
-4 -7 -4 -15z"/>
<path d="M1558 1632 c-4 -12 -2 -24 2 -27 13 -8 18 8 10 29 -6 19 -7 19 -12
-2z"/>
<path d="M1326 2075 c7 -17 20 -20 28 -6 3 5 -1 12 -10 15 -22 9 -24 8 -18 -9z"/>
<path d="M828 2683 c7 -3 16 -2 19 1 4 3 -2 6 -13 5 -11 0 -14 -3 -6 -6z"/>
<path d="M1460 2640 c1 -30 2 -32 11 -17 10 17 14 16 45 -18 19 -21 34 -33 34
-28 0 5 -20 29 -45 53 l-45 44 0 -34z"/>
<path d="M124 2598 l-29 -33 33 29 c30 28 37 36 29 36 -2 0 -16 -15 -33 -32z"/>
<path d="M1463 2540 c0 -30 2 -43 4 -27 2 15 2 39 0 55 -2 15 -4 2 -4 -28z"/>
<path d="M841 2564 c0 -11 3 -14 6 -6 3 7 2 16 -1 19 -3 4 -6 -2 -5 -13z"/>
<path d="M2580 2565 c0 -8 4 -15 10 -15 5 0 7 7 4 15 -4 8 -8 15 -10 15 -2 0
-4 -7 -4 -15z"/>
<path d="M34 2504 c-43 -54 -43 -66 -1 -16 35 41 42 52 34 52 -2 0 -17 -16
-33 -36z"/>
<path d="M1680 2446 c0 -2 8 -10 18 -17 15 -13 16 -12 3 4 -13 16 -21 21 -21
13z"/>
<path d="M2389 2363 c-13 -16 -12 -17 4 -4 9 7 17 15 17 17 0 8 -8 3 -21 -13z"/>
<path d="M1452 2325 c0 -16 2 -22 5 -12 2 9 2 23 0 30 -3 6 -5 -1 -5 -18z"/>
<path d="M2415 2179 c-33 -11 -89 -26 -125 -34 -86 -21 -79 -18 -128 -44 -24
-12 -42 -25 -39 -27 3 -3 23 4 46 15 22 12 76 30 118 40 83 21 203 60 203 67
0 7 -12 4 -75 -17z"/>
<path d="M2557 2164 c-8 -8 1 -24 13 -24 4 0 10 7 14 15 5 15 -14 21 -27 9z"/>
<path d="M1195 2060 c-3 -6 1 -7 9 -4 18 7 21 14 7 14 -6 0 -13 -4 -16 -10z"/>
<path d="M998 2053 c7 -3 16 -2 19 1 4 3 -2 6 -13 5 -11 0 -14 -3 -6 -6z"/>
<path d="M2170 2053 c-36 -7 -49 -23 -18 -23 14 0 31 7 38 15 7 8 11 14 9 14
-2 -1 -15 -4 -29 -6z"/>
<path d="M195 2040 c3 -5 8 -10 11 -10 2 0 4 5 4 10 0 6 -5 10 -11 10 -5 0 -7
-4 -4 -10z"/>
<path d="M400 2039 c58 -4 108 -5 113 0 4 4 -43 8 -105 8 l-113 1 105 -9z"/>
<path d="M530 2040 c0 -5 7 -10 15 -10 8 0 15 5 15 10 0 6 -7 10 -15 10 -8 0
-15 -4 -15 -10z"/>
<path d="M608 2033 c6 -2 18 -2 25 0 6 3 1 5 -13 5 -14 0 -19 -2 -12 -5z"/>
<path d="M698 2033 c12 -2 30 -2 40 0 9 3 -1 5 -23 4 -22 0 -30 -2 -17 -4z"/>
<path d="M855 2030 c3 -5 11 -10 16 -10 6 0 7 5 4 10 -3 6 -11 10 -16 10 -6 0
-7 -4 -4 -10z"/>
<path d="M2038 1953 c7 -3 16 -2 19 1 4 3 -2 6 -13 5 -11 0 -14 -3 -6 -6z"/>
<path d="M1490 1901 c0 -5 5 -13 10 -16 6 -3 10 -2 10 4 0 5 -4 13 -10 16 -5
3 -10 2 -10 -4z"/>
<path d="M1500 1855 c0 -8 7 -15 16 -15 14 0 14 3 4 15 -7 8 -14 15 -16 15 -2
0 -4 -7 -4 -15z"/>
<path d="M1881 1774 c0 -11 3 -14 6 -6 3 7 2 16 -1 19 -3 4 -6 -2 -5 -13z"/>
<path d="M1491 1739 c0 -13 4 -33 9 -44 6 -15 8 -10 6 18 -4 42 -16 64 -15 26z"/>
<path d="M440 1743 c0 -2 10 -7 22 -12 20 -7 20 -9 -17 -49 -21 -24 -31 -40
-22 -36 9 3 28 21 42 40 28 37 49 42 74 20 21 -19 97 -23 141 -7 31 12 45 10
125 -14 108 -32 345 -50 522 -40 l112 6 15 -29 c8 -16 13 -32 11 -36 -3 -3 -2
-4 2 -1 3 3 12 -3 20 -13 13 -15 14 -13 8 18 -3 19 -19 48 -35 64 l-29 29 -73
-13 c-166 -30 -575 2 -551 44 3 6 3 8 -1 5 -4 -4 -27 -2 -52 2 -34 7 -55 5
-78 -5 -36 -16 -126 -17 -126 -1 0 6 -25 15 -55 21 -30 5 -55 8 -55 7z"/>
<path d="M628 1733 c-10 -2 -18 -8 -18 -13 0 -5 14 -4 30 1 45 16 36 25 -12
12z"/>
<path d="M1830 1710 c-9 -6 -10 -10 -3 -10 6 0 15 5 18 10 8 12 4 12 -15 0z"/>
<path d="M1375 1700 c3 -5 14 -10 23 -10 15 0 15 2 2 10 -20 13 -33 13 -25 0z"/>
<path d="M1850 1695 c-7 -9 -10 -18 -7 -22 8 -7 37 15 37 28 0 14 -16 11 -30
-6z"/>
<path d="M1260 1690 l-25 -8 25 -1 c14 0 32 4 40 9 13 9 13 10 0 9 -8 -1 -26
-5 -40 -9z"/>
<path d="M2969 1673 c-13 -16 -12 -17 4 -4 9 7 17 15 17 17 0 8 -8 3 -21 -13z"/>
<path d="M375 1610 c-3 -5 -1 -10 4 -10 6 0 11 5 11 10 0 6 -2 10 -4 10 -3 0
-8 -4 -11 -10z"/>
<path d="M2839 1553 c-13 -16 -12 -17 4 -4 9 7 17 15 17 17 0 8 -8 3 -21 -13z"/>
<path d="M1736 1515 c-11 -8 -15 -15 -9 -15 6 0 16 7 23 15 16 19 11 19 -14 0z"/>
<path d="M2799 1513 c-13 -16 -12 -17 4 -4 16 13 21 21 13 21 -2 0 -10 -8 -17
-17z"/>
<path d="M1856 1503 c-9 -22 -8 -23 24 -7 36 19 37 22 6 22 -14 0 -27 -7 -30
-15z"/>
<path d="M1470 1465 c-7 -9 -10 -18 -7 -21 3 -3 10 4 17 15 13 25 8 27 -10 6z"/>
<path d="M446 1431 c-4 -5 3 -7 14 -4 23 6 26 13 6 13 -8 0 -17 -4 -20 -9z"/>
<path d="M1411 1418 c-5 -13 -94 -106 -197 -208 -104 -102 -206 -205 -228
-230 -42 -47 106 95 309 298 148 148 160 162 140 162 -9 0 -20 -10 -24 -22z"/>
<path d="M1883 1425 c9 -8 17 -20 19 -26 2 -6 20 -9 43 -7 l40 3 -42 14 c-24
8 -43 18 -43 23 0 4 -7 8 -16 8 -14 0 -14 -2 -1 -15z"/>
<path d="M678 1423 c6 -2 18 -2 25 0 6 3 1 5 -13 5 -14 0 -19 -2 -12 -5z"/>
<path d="M721 1426 c8 -8 88 -10 95 -3 4 4 -17 7 -46 7 -29 0 -51 -2 -49 -4z"/>
<path d="M970 1420 c-12 -7 -10 -9 8 -7 12 0 22 5 22 9 0 11 -12 10 -30 -2z"/>
<path d="M2654 1379 c-19 -22 -19 -22 4 -8 12 8 22 17 22 21 0 12 -6 9 -26
-13z"/>
<path d="M2282 1350 c0 -14 2 -19 5 -12 2 6 2 18 0 25 -3 6 -5 1 -5 -13z"/>
<path d="M2609 1333 c-13 -16 -12 -17 4 -4 9 7 17 15 17 17 0 8 -8 3 -21 -13z"/>
<path d="M2544 1268 l-19 -23 23 19 c21 18 27 26 19 26 -2 0 -12 -10 -23 -22z"/>
<path d="M2455 1189 c-11 -17 1 -21 15 -4 8 9 8 15 2 15 -6 0 -14 -5 -17 -11z"/>
<path d="M1461 1154 c0 -11 3 -14 6 -6 3 7 2 16 -1 19 -3 4 -6 -2 -5 -13z"/>
<path d="M2385 1118 l-50 -53 53 50 c48 46 57 55 49 55 -1 0 -25 -24 -52 -52z"/>
<path d="M1855 860 c3 -5 8 -10 11 -10 2 0 4 5 4 10 0 6 -5 10 -11 10 -5 0 -7
-4 -4 -10z"/>
<path d="M53 833 c32 -2 81 -2 110 0 29 2 3 3 -58 3 -61 0 -84 -1 -52 -3z"/>
<path d="M265 824 c43 -7 403 -9 398 -1 -2 4 -97 6 -211 6 -114 -1 -198 -3
-187 -5z"/>
<path d="M685 820 c3 -6 -4 -25 -16 -43 -22 -32 -22 -32 -1 -13 12 10 24 27
28 38 5 17 14 19 70 17 35 -1 67 1 71 4 3 4 -31 7 -76 7 -53 0 -80 -4 -76 -10z"/>
<path d="M875 820 c-19 -8 -19 -9 3 -9 12 -1 22 4 22 9 0 6 -1 10 -2 9 -2 0
-12 -4 -23 -9z"/>
<path d="M1603 823 c5 -8 -6 -13 -35 -16 -31 -2 -24 -4 22 -4 36 -1 58 1 50 4
-8 3 -21 11 -29 17 -11 8 -13 8 -8 -1z"/>
<path d="M938 813 c6 -2 18 -2 25 0 6 3 1 5 -13 5 -14 0 -19 -2 -12 -5z"/>
<path d="M993 813 c9 -2 25 -2 35 0 9 3 1 5 -18 5 -19 0 -27 -2 -17 -5z"/>
<path d="M1103 813 c9 -2 23 -2 30 0 6 3 -1 5 -18 5 -16 0 -22 -2 -12 -5z"/>
<path d="M1200 808 c0 -5 18 -8 40 -8 22 0 40 2 40 4 0 2 -18 6 -40 8 -22 2
-40 0 -40 -4z"/>
<path d="M1407 810 c-20 -4 -41 -11 -45 -15 -4 -5 1 -5 11 -2 10 4 48 7 84 7
37 0 64 2 62 4 -10 9 -78 13 -112 6z"/>
<path d="M1313 803 c9 -2 23 -2 30 0 6 3 -1 5 -18 5 -16 0 -22 -2 -12 -5z"/>
<path d="M1678 803 c7 -3 16 -2 19 1 4 3 -2 6 -13 5 -11 0 -14 -3 -6 -6z"/>
<path d="M1768 803 c6 -2 18 -2 25 0 6 3 1 5 -13 5 -14 0 -19 -2 -12 -5z"/>
<path d="M1928 803 c12 -2 30 -2 40 0 9 3 -1 5 -23 4 -22 0 -30 -2 -17 -4z"/>
<path d="M1998 803 c7 -3 16 -2 19 1 4 3 -2 6 -13 5 -11 0 -14 -3 -6 -6z"/>
<path d="M2038 803 c6 -2 18 -2 25 0 6 3 1 5 -13 5 -14 0 -19 -2 -12 -5z"/>
<path d="M2290 797 c8 -7 374 -17 366 -10 -3 4 -88 9 -189 11 -100 2 -180 2
-177 -1z"/>
<path d="M2688 783 c7 -3 16 -2 19 1 4 3 -2 6 -13 5 -11 0 -14 -3 -6 -6z"/>
<path d="M2758 783 c23 -2 61 -2 85 0 23 2 4 4 -43 4 -47 0 -66 -2 -42 -4z"/>
<path d="M2938 783 c7 -3 16 -2 19 1 4 3 -2 6 -13 5 -11 0 -14 -3 -6 -6z"/>
<path d="M596 682 l-19 -27 26 24 c28 26 32 31 20 31 -5 0 -17 -13 -27 -28z"/>
<path d="M550 631 c-13 -25 3 -36 21 -14 12 14 12 16 0 8 -11 -6 -13 -4 -8 8
9 23 0 21 -13 -2z"/>
<path d="M494 543 c-56 -71 -56 -71 -43 -79 7 -4 9 -3 6 3 -4 6 8 28 26 49 49
60 60 74 54 74 -3 0 -23 -21 -43 -47z"/>
<path d="M195 480 c-3 -6 1 -7 9 -4 18 7 21 14 7 14 -6 0 -13 -4 -16 -10z"/>
<path d="M788 453 c6 -2 18 -2 25 0 6 3 1 5 -13 5 -14 0 -19 -2 -12 -5z"/>
<path d="M868 453 c6 -2 18 -2 25 0 6 3 1 5 -13 5 -14 0 -19 -2 -12 -5z"/>
<path d="M948 453 c12 -2 30 -2 40 0 9 3 -1 5 -23 4 -22 0 -30 -2 -17 -4z"/>
<path d="M343 348 c-42 -57 -119 -158 -170 -225 -51 -68 -89 -123 -85 -123 4
1 19 17 34 38 86 118 160 217 194 257 49 59 117 155 110 155 -3 0 -40 -46 -83
-102z"/>
<path d="M1088 443 c7 -3 16 -2 19 1 4 3 -2 6 -13 5 -11 0 -14 -3 -6 -6z"/>
<path d="M1148 443 c18 -2 45 -2 60 0 15 2 0 4 -33 4 -33 0 -45 -2 -27 -4z"/>
<path d="M1318 443 c7 -3 16 -2 19 1 4 3 -2 6 -13 5 -11 0 -14 -3 -6 -6z"/>
<path d="M230 429 c0 -5 5 -7 10 -4 6 3 10 8 10 11 0 2 -4 4 -10 4 -5 0 -10
-5 -10 -11z"/>
<path d="M1433 433 c9 -2 23 -2 30 0 6 3 -1 5 -18 5 -16 0 -22 -2 -12 -5z"/>
<path d="M1523 433 c20 -2 54 -2 75 0 20 2 3 4 -38 4 -41 0 -58 -2 -37 -4z"/>
<path d="M2628 413 c6 -2 18 -2 25 0 6 3 1 5 -13 5 -14 0 -19 -2 -12 -5z"/>
<path d="M1978 383 c7 -3 16 -2 19 1 4 3 -2 6 -13 5 -11 0 -14 -3 -6 -6z"/>
<path d="M2192 210 c0 -14 2 -19 5 -12 2 6 2 18 0 25 -3 6 -5 1 -5 -13z"/>
<path d="M2408 203 c7 -3 16 -2 19 1 4 3 -2 6 -13 5 -11 0 -14 -3 -6 -6z"/>
<path d="M2360 196 c0 -2 7 -7 16 -10 8 -3 12 -2 9 4 -6 10 -25 14 -25 6z"/>
<path d="M2034 168 l-19 -23 23 19 c21 18 27 26 19 26 -2 0 -12 -10 -23 -22z"/>
<path d="M1943 138 c-13 -6 -23 -15 -23 -20 0 -14 16 -9 35 12 20 22 19 23
-12 8z"/>
<path d="M2211 74 c0 -11 3 -14 6 -6 3 7 2 16 -1 19 -3 4 -6 -2 -5 -13z"/>
<path d="M1775 60 c-4 -7 3 -8 22 -4 38 9 42 14 10 14 -14 0 -29 -5 -32 -10z"/>
<path d="M1918 63 c7 -3 16 -2 19 1 4 3 -2 6 -13 5 -11 0 -14 -3 -6 -6z"/>
<path d="M1738 53 c7 -3 16 -2 19 1 4 3 -2 6 -13 5 -11 0 -14 -3 -6 -6z"/>
<path d="M1846 51 c-3 -4 6 -6 19 -3 14 2 25 6 25 8 0 8 -39 4 -44 -5z"/>
<path d="M2201 34 c0 -11 3 -14 6 -6 3 7 2 16 -1 19 -3 4 -6 -2 -5 -13z"/>
<path d="M1458 3 c7 -3 16 -2 19 1 4 3 -2 6 -13 5 -11 0 -14 -3 -6 -6z"/>
</g>
</svg>
